<?xml version="1.0" standalone="no"?>
<!DOCTYPE svg PUBLIC "-//W3C//DTD SVG 20010904//EN"
 "http://www.w3.org/TR/2001/REC-SVG-20010904/DTD/svg10.dtd">
<svg version="1.0" xmlns="http://www.w3.org/2000/svg"
 width="883.000000pt" height="425.000000pt" viewBox="0 0 883.000000 425.000000"
 preserveAspectRatio="xMidYMid meet">
<metadata>
Created by potrace 1.16, written by Peter Selinger 2001-2019
</metadata>
<g transform="translate(0.000000,425.000000) scale(0.100000,-0.100000)"
fill="#000000" stroke="none">
<path d="M681 2924 c-129 -34 -242 -122 -289 -222 -21 -45 -27 -75 -30 -147
-5 -116 18 -182 89 -260 69 -74 139 -107 350 -159 195 -49 224 -61 264 -108
38 -44 31 -105 -15 -153 -108 -111 -338 -78 -527 75 l-61 50 -86 -99 c-47 -54
-86 -101 -86 -104 0 -16 154 -123 234 -162 232 -115 473 -117 642 -6 111 72
164 152 184 275 21 130 -17 243 -111 332 -73 69 -140 97 -334 144 -177 43
-231 64 -264 106 -62 79 24 180 164 191 45 4 76 0 124 -17 62 -20 191 -96 205
-119 4 -6 13 -11 20 -11 14 0 159 173 164 195 4 18 -102 97 -190 141 -140 71
-316 94 -447 58z"/>
<path d="M4610 2610 l0 -170 -60 0 -60 0 0 -105 0 -105 59 0 60 0 3 -222 c3
-221 3 -224 31 -280 30 -61 74 -105 140 -140 38 -21 59 -23 211 -26 138 -3
168 -1 164 10 -3 7 -18 59 -33 116 l-28 102 -99 0 c-94 0 -100 1 -123 26 -25
27 -25 29 -25 220 l0 194 125 0 125 0 0 105 0 105 -125 0 -125 0 0 170 0 170
-120 0 -120 0 0 -170z"/>
<path d="M1905 2453 c-53 -12 -88 -27 -115 -50 l-30 -25 0 31 0 31 -120 0
-120 0 0 -695 0 -695 120 0 120 0 0 285 c0 157 3 285 6 285 3 0 20 -11 37 -24
72 -54 189 -70 302 -41 272 71 417 383 296 640 -75 160 -251 268 -430 264 -25
-1 -55 -3 -66 -6z m181 -256 c38 -20 82 -70 102 -117 23 -56 12 -151 -24 -202
-81 -115 -214 -137 -313 -51 -57 48 -84 105 -84 173 0 166 173 273 319 197z"/>
<path d="M2887 2450 c-104 -27 -215 -113 -265 -208 -131 -246 -47 -548 185
-662 129 -64 306 -52 431 30 31 20 65 46 75 57 18 21 17 22 -63 91 l-82 71
-51 -34 c-29 -19 -73 -40 -98 -46 -44 -12 -50 -11 -103 15 -38 19 -65 41 -84
69 -23 34 -52 97 -52 113 0 2 144 4 320 4 l320 0 0 58 c0 176 -103 342 -256
414 -54 25 -81 31 -152 34 -48 2 -104 -1 -125 -6z m184 -223 c24 -13 59 -43
78 -68 l34 -44 -97 -3 c-53 -1 -139 -1 -192 0 l-97 3 34 45 c39 52 107 90 160
90 20 0 56 -10 80 -23z"/>
<path d="M3875 2446 c-284 -69 -427 -392 -293 -659 117 -234 420 -319 651
-184 42 25 173 155 164 163 -2 3 -48 36 -103 74 l-98 70 -45 -51 c-78 -90
-156 -109 -249 -63 -59 29 -103 85 -122 154 -40 149 114 309 259 269 33 -9 62
-28 104 -71 l58 -58 95 71 c52 39 94 75 94 80 0 19 -122 137 -168 162 -99 54
-234 71 -347 43z"/>
<path d="M5675 2442 c-28 -10 -65 -28 -83 -40 l-32 -23 0 30 0 31 -125 0 -125
0 0 -440 0 -440 125 0 125 0 0 238 c0 132 5 253 10 274 22 78 88 129 179 138
l55 5 27 115 c16 63 28 118 29 123 0 14 -135 6 -185 -11z"/>
<path d="M7390 2448 c-19 -5 -46 -18 -61 -29 -34 -24 -39 -24 -39 1 0 19 -7
20 -125 20 l-125 0 0 -440 0 -440 125 0 125 0 0 260 c0 288 1 292 64 348 87
76 207 53 266 -50 25 -42 25 -48 28 -300 l3 -258 125 0 124 0 0 260 c0 288 1
292 64 348 91 79 215 52 270 -60 26 -52 26 -54 26 -300 l0 -248 125 0 125 0 0
248 c0 340 -16 405 -128 524 -87 93 -245 144 -372 120 -76 -14 -155 -49 -202
-90 l-35 -32 -39 31 c-103 82 -241 117 -344 87z"/>
<path d="M6010 2181 c0 -142 5 -283 10 -312 24 -128 112 -242 230 -298 50 -23
67 -26 175 -26 115 0 123 1 185 32 83 41 152 110 193 193 l32 65 3 302 3 303
-125 0 -125 0 -3 -278 -3 -279 -27 -35 c-34 -44 -102 -73 -151 -64 -47 9 -97
44 -121 86 -20 33 -21 54 -24 303 l-3 267 -125 0 -124 0 0 -259z"/>
</g>
</svg>
