<?xml version="1.0" standalone="no"?>
<!DOCTYPE svg PUBLIC "-//W3C//DTD SVG 20010904//EN"
 "http://www.w3.org/TR/2001/REC-SVG-20010904/DTD/svg10.dtd">
<svg version="1.0" xmlns="http://www.w3.org/2000/svg"
 width="391.000000pt" height="425.000000pt" viewBox="0 0 391.000000 425.000000"
 preserveAspectRatio="xMidYMid meet">
<metadata>
Created by potrace 1.16, written by Peter Selinger 2001-2019
</metadata>
<g transform="translate(0.000000,425.000000) scale(0.100000,-0.100000)"
fill="#000000" stroke="none">
<path d="M1894 3581 c-48 -22 -80 -60 -94 -111 -7 -26 -9 -540 -8 -1532 l3
-1494 27 -42 c59 -89 176 -105 259 -35 63 53 59 -48 59 1593 0 1633 3 1536
-56 1592 -55 51 -120 61 -190 29z"/>
<path d="M1176 3180 c-38 -12 -85 -57 -102 -97 -12 -27 -14 -220 -14 -1129 l0
-1097 25 -43 c28 -48 91 -84 146 -84 49 1 112 32 140 71 l24 34 3 1113 c3
1243 7 1158 -67 1208 -41 27 -112 38 -155 24z"/>
<path d="M2661 2870 c-39 -9 -76 -35 -105 -74 -21 -27 -21 -35 -21 -836 0
-805 0 -809 21 -837 94 -127 281 -94 313 57 15 68 15 1496 0 1559 -5 24 -19
56 -29 71 -34 47 -115 74 -179 60z"/>
<path d="M3370 2499 c-14 -6 -36 -20 -48 -32 -52 -49 -52 -45 -52 -510 0 -434
0 -434 23 -468 27 -41 98 -79 148 -79 56 0 119 39 146 90 23 43 23 44 23 464
0 418 0 421 -23 461 -40 71 -140 105 -217 74z"/>
<path d="M405 2306 c-76 -47 -80 -60 -83 -322 -4 -260 2 -300 52 -350 83 -83
220 -60 274 46 21 42 22 55 22 279 0 217 -2 238 -21 278 -30 61 -70 87 -144
91 -50 2 -67 -1 -100 -22z"/>
</g>
</svg>
